<?xml version="1.0" encoding="UTF-8" standalone="no"?>
<svg
  width="225.575"
  height="300"
  viewBox="0 0 203.01749 370"
  fill="none"
  version="1.1"
  id="svg4"
  sodipodi:docname="napkin.svg"
  inkscape:version="1.4 (86a8ad7, 2024-10-11)"
  xmlns:inkscape="http://www.inkscape.org/namespaces/inkscape"
  xmlns:sodipodi="http://sodipodi.sourceforge.net/DTD/sodipodi-0.dtd"
  xmlns="http://www.w3.org/2000/svg"
  xmlns:svg="http://www.w3.org/2000/svg">
  <sodipodi:namedview
    id="namedview4"
    pagecolor="#505050"
    bordercolor="#eeeeee"
    borderopacity="1"
    inkscape:showpageshadow="0"
    inkscape:pageopacity="0"
    inkscape:pagecheckerboard="0"
    inkscape:deskcolor="#505050"
    inkscape:zoom="1.2271249"
    inkscape:cx="177.65103"
    inkscape:cy="249.77083"
    inkscape:window-width="1920"
    inkscape:window-height="1051"
    inkscape:window-x="-9"
    inkscape:window-y="-9"
    inkscape:window-maximized="1"
    inkscape:current-layer="svg4" />
  <g
    clip-path="url(#clip0_2116_6596)"
    id="g4"
    transform="matrix(10.415095,0,0,10.415081,-48.427952,-4.5209977)">
    <path
      d="m 9.02257,35.1681 c 0.21285,0.7928 1.20263,1.0589 1.78263,0.4789 l 15.15,-15.1607 -18.07141,10.43 1.13878,4.2571 z"
      fill="#ffb900"
      id="path1" />
    <path
      d="M 2.63646,0.578489 C 1.92871,0.168742 1.04004,0.679596 1.04004,1.49909 V 10.7157 L 10.6132,5.18682 Z"
      fill="#ffb900"
      id="path2" />
    <path
      d="M 13.4602,6.83643 1.04004,14.0043 v 7.2371 L 19.7181,10.455 Z"
      fill="#ffb900"
      id="path3" />
    <path
      d="M 27.2213,14.7922 22.5651,12.0996 1.04004,24.5304 v 5.4012 c 0,0.7982 0.83546,1.2931 1.53788,0.9472 L 13.5772,24.5304 27.2213,16.6388 c 0.7078,-0.4098 0.7078,-1.4315 0,-1.8412 z"
      fill="#ffb900"
      id="path4" />
  </g>
  <defs
    id="defs4">
    <clipPath
      id="clip0_2116_6596">
      <rect
        width="126"
        height="36"
        fill="#ffffff"
        transform="translate(0,0.197754)"
        id="rect4"
        x="0"
        y="0" />
    </clipPath>
  </defs>
</svg>