<?xml version="1.0" encoding="UTF-8" standalone="no"?>
<svg
   width="819.23602"
   height="593.31299"
   viewBox="0 0 819.23602 593.31299"
   version="1.1"
   id="svg3"
   sodipodi:docname="trae.svg"
   inkscape:version="1.4 (86a8ad7, 2024-10-11)"
   xmlns:inkscape="http://www.inkscape.org/namespaces/inkscape"
   xmlns:sodipodi="http://sodipodi.sourceforge.net/DTD/sodipodi-0.dtd"
   xmlns="http://www.w3.org/2000/svg"
   xmlns:svg="http://www.w3.org/2000/svg">
  <defs
     id="defs3" />
  <sodipodi:namedview
     id="namedview3"
     pagecolor="#505050"
     bordercolor="#eeeeee"
     borderopacity="1"
     inkscape:showpageshadow="0"
     inkscape:pageopacity="0"
     inkscape:pagecheckerboard="0"
     inkscape:deskcolor="#505050"
     inkscape:zoom="0.76915974"
     inkscape:cx="544.7503"
     inkscape:cy="541.5"
     inkscape:window-width="1920"
     inkscape:window-height="1051"
     inkscape:window-x="-9"
     inkscape:window-y="-9"
     inkscape:window-maximized="1"
     inkscape:current-layer="svg3" />
  <path
     fill="#ffb900"
     fill-opacity="0.988235"
     d="m 0,0 c 66.502672,13.62304 220.53123,11.09076 294.46562,11.35314 168.41345,0.59215 339.4338,-0.2696 507.70042,-6.01056 l 11.22194,-0.34421 c 8.15289,16.16374 5.27398,530.36336 5.6519,588.31453 -148.04208,-3.81286 -297.60545,-3.67806 -445.74622,-2.95111 -79.06153,0.38754 -174.94635,-4.28466 -252.71045,2.1688 -1.51407,-38.74725 -4.31354,-78.75582 1.23966,-117.05535 17.41785,-7.96754 506.65574,-4.04154 578.33947,-4.19319 -5.23305,-109.61016 -4.62887,-231.00312 -0.61862,-340.7553 -81.44698,5.65911 -202.50535,0.5777 -288.28031,1.50685 -82.18114,0.89063 -211.33463,4.41705 -290.56947,-2.0316 1.34317,95.608 7.46445,253.88752 1.12893,345.47324 -31.583686,1.55981 -90.183094,2.80669 -119.4506631,7.53907 C -1.8939141,321.42261 1.5521045,161.19092 0,0 Z"
     id="path1"
     style="stroke-width:24.0711" />
  <path
     fill="#ffb900"
     d="m 543.26932,225.91089 c 39.41402,3.7599 74.72873,46.33687 106.20651,75.67713 -32.99907,27.64566 -54.77379,48.97265 -84.61473,79.29742 -23.77984,-0.34181 -73.39519,-54.85322 -97.70219,-75.45808 28.24262,-27.15942 49.9716,-50.28453 76.11041,-79.51647 z"
     id="path2"
     style="stroke-width:24.0711" />
  <path
     fill="#ffb900"
     fill-opacity="0.988235"
     d="m 321.74058,221.33738 c 11.85742,1.85107 83.43766,67.5411 99.1272,80.41914 -35.81539,27.53011 -56.49969,48.54418 -87.86915,80.24101 l -10.03764,1.2204 c -21.11999,-10.9018 -64.73682,-59.05122 -83.53154,-78.39957 26.34823,-23.0914 57.52993,-57.53233 82.31113,-83.48098 z"
     id="path3"
     style="stroke-width:24.0711" />
</svg>
